<?xml version="1.0" encoding="UTF-8" standalone="no"?>
<svg
   xmlns:dc="http://purl.org/dc/elements/1.1/"
   xmlns:cc="http://creativecommons.org/ns#"
   xmlns:rdf="http://www.w3.org/1999/02/22-rdf-syntax-ns#"
   xmlns:svg="http://www.w3.org/2000/svg"
   xmlns="http://www.w3.org/2000/svg"
   xmlns:sodipodi="http://sodipodi.sourceforge.net/DTD/sodipodi-0.dtd"
   xmlns:inkscape="http://www.inkscape.org/namespaces/inkscape"
   inkscape:export-ydpi="96"
   inkscape:export-xdpi="96"
   inkscape:export-filename="D:\Dropbox\Projects\iBoardBot\code\server\imgs\w\storm.png"
   width="20in"
   height="12in"
   viewBox="0 0 508.00001 304.80001"
   version="1.1"
   id="svg8"
   sodipodi:docname="WeatherIconsUsed.svg"
   inkscape:version="1.0 (4035a4fb49, 2020-05-01)">
  <defs
     id="defs2" />
  <sodipodi:namedview
     id="base"
     pagecolor="#ffffff"
     bordercolor="#666666"
     borderopacity="1.0"
     inkscape:pageopacity="0.0"
     inkscape:pageshadow="2"
     inkscape:zoom="1.7373286"
     inkscape:cx="36.736956"
     inkscape:cy="170.8367"
     inkscape:document-units="in"
     inkscape:current-layer="layer1"
     inkscape:document-rotation="0"
     showgrid="false"
     inkscape:snap-global="false"
     inkscape:snap-bbox="true"
     inkscape:snap-bbox-midpoints="true"
     inkscape:snap-page="true"
     inkscape:snap-center="true"
     units="in"
     inkscape:window-width="2560"
     inkscape:window-height="1537"
     inkscape:window-x="-8"
     inkscape:window-y="-8"
     inkscape:window-maximized="1" />
  <metadata
     id="metadata5">
    <rdf:RDF>
      <cc:Work
         rdf:about="">
        <dc:format>image/svg+xml</dc:format>
        <dc:type
           rdf:resource="http://purl.org/dc/dcmitype/StillImage" />
        <dc:title></dc:title>
      </cc:Work>
    </rdf:RDF>
  </metadata>
  <g
     inkscape:label="Layer 1"
     inkscape:groupmode="layer"
     id="layer1">
    <g
       transform="translate(-69.781538)"
       id="g1860">
      <path
         sodipodi:nodetypes="csscccccccccccccssccccccccccccccccccsccccscscccccccccccccccccccccscccccccsccsscsccccssc"
         d="m 29.503891,0.26571433 c -1.294075,-0.02145 -2.59393,0.131289 -3.878278,0.459767 C 22.637522,1.4896993 20.432995,2.79613 18.414126,4.998733 l -0.766974,0.836782 -1.275643,-0.395961 -1.275634,-0.39545 -1.42275,0.118191 c -1.748983,0.145204 -3.211607,0.86377 -4.3146191,2.119902 -1.070587,1.219364 -1.509235,2.2843565 -1.702518,4.135094 l -0.155087,1.481611 -1.22527,0.435357 c -2.301772,0.817582 -4.657846,3.319377 -5.49301703,5.8336 l -0.4179,1.260193 0.0077,1.844635 0.0077,1.844635 0.546556,1.461641 c 0.61202103,1.63542 2.09733303,3.655031 3.33720403,4.538029 0.451163,0.321225 1.464129,0.85067 2.251562,1.176903 l 1.432227,0.593436 12.8820291,-0.04931 1.929411,-2.775691 -13.7926261,-0.01505 -1.156956,-0.356563 h 0.0019 C 6.2948539,28.22318 4.7780639,26.897723 3.9875719,25.349501 l -0.636321,-1.245718 0.0077,-1.914946 0.0077,-1.914956 0.543564,-1.021304 c 1.065743,-2.001582 3.512702,-3.68416 5.376328,-3.696748 l 0.8298161,-0.0056 0.535584,-0.535573 0.535583,-0.535599 -0.163561,-0.677203 C 10.934125,13.429413 10.794234,12.586351 10.712787,11.92827 L 10.565178,10.731912 11.111241,9.8482505 C 11.411506,9.3623125 11.958582,8.766967 12.327526,8.525249 l 0.671236,-0.439341 1.219788,-0.01838 1.219778,-0.01787 0.990887,0.686676 c 1.254674,0.8694135 1.965822,0.8679315 2.688907,-0.0048 0.314827,-0.380233 1.138496,-1.303418 1.83018,-2.051091 l 1.257684,-1.359412 1.806237,-0.880188 1.806739,-0.880673 1.659623,-0.252339 1.659622,-0.252825 1.531961,0.22142 c 5.276324,0.762941 9.127514,4.472355 10.092394,9.720368 l 0.305687,1.659624 0.510155,0.446822 0.510155,0.446822 1.184382,0.0031 1.184874,0.0025 1.286114,0.599405 1.286104,0.598921 1.041752,1.183387 1.041251,1.182882 0.320655,1.144468 c 0.176463,0.62946 0.270967,1.828404 0.210451,2.663981 l -0.109713,1.518991 -0.758502,1.232768 -0.758501,1.232237 -1.224266,0.823321 c -0.67304,0.452621 -1.646296,0.940224 -2.1628,1.083663 l -0.938525,0.260815 -10.645434,-0.01148 -3.030011,2.750736 15.720552,-0.05636 1.535946,-0.803384 h -9.65e-4 c 2.828767,-1.479368 4.701204,-4.059363 5.271605,-7.263357 l 0.25433,-1.428221 -0.273775,-1.481105 C 52.12807,18.645827 51.229545,16.871157 49.83367,15.475336 48.428098,14.069737 47.245704,13.406499 45.194401,12.872203 44.396508,12.664392 43.727241,12.463629 43.707323,12.426376 43.686863,12.389126 43.525495,11.784051 43.347276,11.081928 43.169096,10.379803 42.662473,9.058487 42.221779,8.145693 L 41.420433,6.486038 39.489525,4.571087 37.558618,2.6561373 35.83018,1.8113623 C 33.802549,0.82036233 31.661645,0.30164033 29.504856,0.26594633 Z"
         style="fill:#000000;stroke:none;stroke-width:0.264583"
         id="path1103"
         inkscape:export-xdpi="96"
         inkscape:export-ydpi="96" />
      <path
         sodipodi:nodetypes="ccccccccscc"
         id="path1105"
         d="m 33.502651,26.638983 -6.075317,-1.179538 c 0.0039,-0.124371 1.297974,-1.843255 2.87503,-3.81974 l 3.508561,-4.837393 h -6.30335 l -6.110685,10.595935 4.64117,0.80489 -2.955125,4.25224 -1.251402,4.178012 c -0.107001,0.357258 0.269731,0.183584 0.461238,0.183584 z"
         style="fill:#000000;stroke-width:0.264583"
         inkscape:export-xdpi="96"
         inkscape:export-ydpi="96" />
      <path
         style="fill:#000000;stroke-width:0.264583"
         d="m 16.418331,38.201354 1.595787,-1.529229 V 36.12057 c 0,-0.764754 -0.720277,-1.485418 -1.484723,-1.485418 h -0.639593 l -1.491111,1.491112 -1.491103,1.491102 v 0.551506 c 0,0.666564 0.850999,1.574933 1.468126,1.567251 0.245625,-0.0029 1.164801,-0.693701 2.042617,-1.534769 z"
         id="path1114-4-3"
         inkscape:export-xdpi="96"
         inkscape:export-ydpi="96" />
      <path
         id="path1112-9-1-2"
         d="m 38.127658,37.740029 1.637408,-1.572433 v -0.513919 c 0,-0.731076 -0.73509,-1.447754 -1.484723,-1.447754 H 37.64075 l -1.491112,1.491112 -1.491111,1.491102 v 0.664693 0.664692 l 0.567592,0.39747 c 0.312009,0.218615 0.724109,0.397471 0.915606,0.397471 0.191488,0 1.08514,-0.707588 1.985933,-1.572434 z"
         style="fill:#000000;stroke-width:0.264583"
         inkscape:export-xdpi="96"
         inkscape:export-ydpi="96" />
    </g>
    <g
       inkscape:export-ydpi="96"
       inkscape:export-xdpi="96"
       transform="translate(-192.1146)"
       id="g1854">
      <path
         id="path1112-9"
         d="m 98.582952,35.935506 1.609078,-1.545221 v -0.505038 c 0,-0.718428 -0.72236,-1.422708 -1.459035,-1.422708 h -0.628527 l -1.465317,1.465316 -1.465306,1.465316 v 0.653194 0.653193 l 0.557773,0.390585 c 0.306611,0.214833 0.711572,0.390594 0.899757,0.390594 0.188185,0 1.066367,-0.695346 1.951577,-1.545231 z"
         style="fill:#000000;stroke-width:0.264583" />
      <path
         id="path1114-4"
         d="m 80.015179,37.014818 1.56818,-1.502765 v -0.542022 c 0,-0.751525 -0.707817,-1.459712 -1.459038,-1.459712 h -0.628528 l -1.465316,1.465307 -1.465307,1.465316 v 0.541965 c 0,0.655024 0.836276,1.547687 1.442727,1.540129 0.241376,-0.0028 1.144651,-0.68169 2.007282,-1.508218 z"
         style="fill:#000000;stroke-width:0.264583" />
      <path
         id="path1120-9"
         d="m 90.692993,37.562312 2.051691,-2.102075 v -0.514569 c 0,-0.712359 -0.659889,-1.303125 -1.455529,-1.303125 h -0.66667 l -2.075276,2.064465 c -2.059467,2.048828 -2.31539,2.538076 -1.815578,3.472038 l 0.259688,0.485332 h 0.824991 0.824745 z"
         style="fill:#000000;stroke-width:0.264583" />
      <path
         id="path1103-3"
         style="fill:#000000;stroke:none;stroke-width:0.264583"
         d="M 91.912865,0.14501366 C 90.641186,0.12396095 89.363799,0.27403265 88.10167,0.59682194 85.165281,1.3478253 82.9989,2.6316519 81.014955,4.7961458 L 80.261239,5.6184534 79.007664,5.229348 77.754098,4.8407358 76.355961,4.9568861 c -1.718736,0.1426938 -3.156058,0.8488226 -4.239988,2.0832228 -1.052057,1.1982692 -1.483116,2.244845 -1.673055,4.0635621 l -0.152405,1.455975 -1.204072,0.427825 c -2.261953,0.803446 -4.577268,3.261957 -5.397992,5.732692 l -0.41067,1.238392 0.0076,1.812724 0.0076,1.812715 0.5371,1.436364 c 0.601435,1.607128 2.061051,3.591801 3.279463,4.459514 0.443359,0.315677 1.438811,0.835964 2.212621,1.156543 l 1.40744,0.58317 12.659178,-0.04846 1.896044,-2.727664 -13.554032,-0.01479 -1.136932,-0.350394 h 0.0019 c -1.490408,-0.459452 -2.98095,-1.76197 -3.757767,-3.283417 l -0.625313,-1.224159 0.0076,-1.881828 0.0076,-1.881818 0.53416,-1.003646 c 1.047306,-1.966949 3.451934,-3.620421 5.28332,-3.632797 l 0.815461,-0.0057 0.526318,-0.526308 0.526327,-0.526328 -0.16074,-0.665493 c -0.08829,-0.365976 -0.225757,-1.194447 -0.305795,-1.841145 l -0.145065,-1.175661 0.536617,-0.8683766 c 0.295069,-0.4775362 0.832691,-1.062574 1.195253,-1.3001188 l 0.659614,-0.4317323 1.198686,-0.018018 1.198687,-0.017544 0.973745,0.6747963 c 1.232958,0.8543703 1.931823,0.8529099 2.642399,-0.00474 0.309373,-0.3736572 1.118783,-1.2808773 1.798501,-2.015617 L 84.741296,5.1127372 86.516287,4.2477741 88.29177,3.382337 89.922682,3.1343607 91.553594,2.8859102 93.059052,3.1035023 c 5.185056,0.7497231 8.969618,4.3949718 9.917788,9.5521937 l 0.30041,1.630912 0.50135,0.439092 0.50132,0.439091 1.1639,0.0028 1.16436,0.0028 1.26387,0.589039 1.26385,0.588557 1.02374,1.162915 1.02323,1.162414 0.31512,1.124679 c 0.17341,0.61857 0.26627,1.796764 0.2068,2.617895 l -0.10782,1.492714 -0.74538,1.211441 -0.74537,1.21092 -1.20308,0.809078 c -0.66141,0.444791 -1.61783,0.923949 -2.12539,1.064917 l -0.9223,0.256302 -10.461282,-0.01129 -2.977565,2.703149 15.448587,-0.05538 1.50937,-0.789486 v 0 c 2.77984,-1.453775 4.61988,-3.989138 5.18041,-7.137704 l 0.24993,-1.403514 -0.26904,-1.455482 c -0.38917,-2.104456 -1.27214,-3.848426 -2.64386,-5.220105 -1.38126,-1.381276 -2.5432,-2.033048 -4.55901,-2.558095 -0.7841,-0.20422 -1.44178,-0.401509 -1.46135,-0.438114 -0.0201,-0.0366 -0.1787,-0.631212 -0.35384,-1.321191 -0.17519,-0.68988 -0.67304,-1.9883393 -1.10611,-2.8853461 L 103.62416,6.257792 101.72665,4.375964 99.829149,2.4941455 98.130613,1.6639858 C 96.138059,0.69012718 94.03421,0.18037653 91.914724,0.14530764 Z"
         sodipodi:nodetypes="csscccccccccccccssccccccccccccccccccsccccscscccccccccccccccccccccscccccccsccsscsccccssc" />
      <path
         style="fill:#000000;stroke-width:0.264583"
         d="m 95.842439,26.062031 -5.970217,-1.159123 c 0.0038,-0.122219 1.275519,-1.811368 2.825293,-3.753661 l 3.447874,-4.753711 h -6.194305 l -6.004983,10.412624 4.56089,0.790975 -2.904003,4.178669 -1.229754,4.105744 c -0.105159,0.351068 0.265056,0.180399 0.453259,0.180399 z"
         id="path1105-8"
         sodipodi:nodetypes="ccccccccscc" />
      <path
         style="fill:#000000;stroke-width:0.264583"
         d="m 73.86424,35.797507 2.051681,-2.102066 v -0.514568 c 0,-0.71236 -0.659888,-1.303125 -1.45552,-1.303125 h -0.666669 l -2.075276,2.064455 c -2.059467,2.048827 -2.3154,2.538085 -1.815587,3.472038 l 0.259697,0.485341 h 0.824991 0.824736 z"
         id="path1120-9-0" />
      <path
         style="fill:#000000;stroke-width:0.264583"
         d="m 105.58013,35.879233 1.60908,-1.545231 v -0.505028 c 0,-0.718429 -0.72237,-1.422708 -1.45904,-1.422708 h -0.62853 l -1.46532,1.465306 -1.4653,1.465316 v 0.653194 0.653194 l 0.55776,0.390594 c 0.30661,0.214823 0.71158,0.390585 0.89977,0.390585 0.18818,0 1.06636,-0.695347 1.95158,-1.545222 z"
         id="path1112-9-1" />
    </g>
    <path
       inkscape:export-ydpi="96"
       inkscape:export-xdpi="96"
       style="fill:#000000;stroke-width:0.264583"
       d="m -238.95421,31.681196 c 0.5142,-0.514224 0.52243,-1.749662 0.0155,-2.171181 -0.21427,-0.177847 -1.22697,-0.381082 -2.25074,-0.451666 l -1.86103,-0.128305 -1.18917,-0.596587 c -1.47057,-0.7376 -3.12197,-2.572275 -3.52428,-3.915183 -0.64666,-2.158627 -0.30506,-4.185194 1.03895,-6.16191 l 0.74518,-1.096278 1.31367,-0.750256 c 0.72255,-0.412643 1.87853,-0.827937 2.56867,-0.92288 l 1.25501,-0.1726 0.41156,-0.62797 0.41157,-0.627969 -0.29376,-0.644637 c -0.16153,-0.354563 -0.29323,-1.131133 -0.29271,-1.725765 v -1.081103 l 0.51111,-0.8383291 c 0.28114,-0.461106 0.88846,-1.075237 1.34941,-1.364772 l 0.83831,-0.526416 1.21102,0.104126 1.21103,0.104125 0.89386,0.681885 c 0.49182,0.375012 1.13129,0.681858 1.42145,0.681858 h 0.52705 l 1.2882,-1.638951 c 2.22527,-2.831688 5.20911,-4.460067 8.65184,-4.72159 l 1.82864,-0.138903 1.3867,0.324621 c 2.09718,0.490893 4.03179,1.525204 5.6495,3.020288 l 1.45745,1.346972 0.91572,1.742716 0.916,1.7427421 0.30686,1.797634 c 0.169,0.988706 0.40951,1.926326 0.53478,2.08362 0.12527,0.157295 0.92782,0.349469 1.78336,0.427075 l 1.55597,0.141089 1.38954,0.67975 1.38929,0.679774 0.78608,0.992616 c 1.10583,1.396128 1.55057,2.602834 1.55057,4.206673 0,1.744774 -0.36063,2.815046 -1.4608,4.336135 l -0.86994,1.20277 -1.32884,0.66213 -1.32858,0.662129 h -1.69307 -1.69281 l -0.57156,0.400426 -0.57181,0.400426 v 0.738732 c 0,0.40629 0.18186,0.920617 0.40435,1.142939 l 0.40411,0.404207 h 1.63082 c 4.99767,0 8.94844,-3.250713 9.91355,-8.15725 l 0.31201,-1.585319 -0.26777,-1.520137 c -0.35574,-2.020162 -1.1552,-3.656669 -2.53626,-5.192754 l -1.13592,-1.263579 -1.54671,-0.772789 c -0.85039,-0.425042 -2.03595,-0.846227 -2.63426,-0.935947 l -1.08807,-0.16316 -0.30739,-1.293778 c -1.19357,-5.0244241 -5.42984,-9.2995701 -10.5317,-10.62846008 -0.80901,-0.210668 -2.5399,-0.383037 -3.84687,-0.383037 h -2.37653 l -2.00663,0.637307 c -2.32456,0.73816598 -4.69903,2.21022698 -6.2105,3.84992398 l -1.05977,1.149627 -0.89696,-0.374781 c -1.06312,-0.444154 -3.20556,-0.484719 -4.64321,-0.0879 l -1.02891,0.284005 -1.32267,1.322252 -1.32291,1.322226 -0.41337,1.397132 c -0.22764,0.7684151 -0.41363,1.7678211 -0.41363,2.2208761 v 0.82372 l -1.42452,0.578221 c -1.87853,0.762345 -3.69662,2.433655 -4.70417,4.323737 l -0.81567,1.530452 -0.21479,1.570606 c -0.57593,4.21156 1.31289,8.159797 4.79061,10.013352 1.83248,0.976718 2.99824,1.275179 5.11548,1.309597 l 1.58915,0.02585 z"
       id="path966-1" />
    <path
       inkscape:export-ydpi="96"
       inkscape:export-xdpi="96"
       style="fill:#000000;stroke-width:0.264583"
       d="m -218.29343,30.446346 4.43717,-4.400287 v -0.691762 c 0,-0.380466 -0.18186,-0.873648 -0.40411,-1.09597 l -0.40436,-0.404207 -1.84638,-0.0025 -1.84664,-0.0025 3.15105,-3.128709 3.15103,-3.12871 V 16.91567 c 0,-0.880336 -0.4378,-1.293289 -1.37076,-1.293289 h -0.75368 l -4.72527,4.529957 -4.72553,4.529956 v 0.530018 c 0,0.291541 0.19164,0.741715 0.42572,1.00046 l 0.4257,0.470392 h 1.88934 c 1.0392,0 1.88933,0.07014 1.88933,0.15588 0,0.08574 -1.33809,1.481527 -2.97329,3.101752 l -2.97329,2.94582 0.0795,0.815129 0.0795,0.815129 0.61555,0.305174 c 0.33877,0.167866 0.80178,0.241948 1.0289,0.164651 0.2274,-0.07727 2.41023,-2.12066 4.85054,-4.540811 z"
       id="path954" />
    <path
       inkscape:export-ydpi="96"
       inkscape:export-xdpi="96"
       style="fill:#000000;stroke-width:0.264583"
       d="m -232.40005,33.266253 4.43512,-4.440492 -0.0836,-0.872285 -0.0838,-0.872284 -0.64308,-0.323618 c -0.35369,-0.177976 -1.33321,-0.325315 -2.17666,-0.327399 l -1.53359,-0.0039 3.14127,-2.979518 3.14126,-2.979492 v -0.698862 c 0,-0.900039 -0.4306,-1.316181 -1.36177,-1.316181 h -0.74467 l -4.73427,4.541995 -4.73453,4.541994 v 0.518005 c 0,0.284879 0.19163,0.729651 0.42571,0.988396 l 0.42571,0.470392 h 2.0784 2.0784 l -3.16801,3.175705 -3.16828,3.175705 0.0854,0.741047 0.0852,0.741073 0.60037,0.297714 c 0.33029,0.163751 0.80307,0.244778 1.05052,0.18006 0.24746,-0.06472 2.44572,-2.115902 4.88501,-4.558174 z"
       id="path942" />
    <path
       id="path966-1-8"
       d="m -176.27597,32.553835 c 0.5142,-0.514223 0.52243,-1.749661 0.0155,-2.171182 -0.21427,-0.177844 -5.98947,-0.381082 -7.01324,-0.451664 l -1.86103,-0.128305 -1.18917,-0.596588 c -1.47057,-0.7376 -3.12197,-2.572275 -3.52428,-3.915183 -0.64666,-2.158627 -0.30506,-4.185194 1.03895,-6.16191 l 0.74518,-1.096278 1.31367,-0.750256 c 0.72255,-0.412643 1.87853,-0.827937 2.56867,-0.92288 l 1.25501,-0.1726 0.41156,-0.62797 0.41157,-0.627969 -0.29376,-0.644637 c -0.16153,-0.354563 -0.29323,-1.131133 -0.29271,-1.725765 v -1.081103 l 0.51111,-0.838329 c 0.28114,-0.461106 0.88846,-1.0752369 1.34941,-1.3647719 l 0.83831,-0.526416 1.21102,0.104126 1.21103,0.104125 0.89386,0.681885 c 0.49182,0.3750119 1.13129,0.6818579 1.42145,0.6818579 h 0.52705 l 1.2882,-1.6389509 c 2.22527,-2.831688 5.20911,-4.460067 8.65184,-4.72159 l 1.82864,-0.138903 1.3867,0.324621 c 2.09718,0.490893 4.03179,1.525204 5.6495,3.020288 l 1.45745,1.346972 0.91573,1.7427159 0.91599,1.742742 0.30686,1.797634 c 0.169,0.988706 0.40951,1.926326 0.53478,2.08362 0.12528,0.157295 0.92783,0.349469 1.78336,0.427075 l 1.55597,0.141089 1.38954,0.67975 1.38929,0.679774 0.78608,0.992616 c 1.10583,1.396128 1.55057,2.602834 1.55057,4.206673 0,1.744774 -0.36063,2.815046 -1.4608,4.336135 l -0.86993,1.202771 -1.32885,0.66213 -1.32858,0.662128 h -1.69307 -8.57197 l -0.57156,0.400426 -0.57181,0.400425 v 0.738733 c 0,0.406291 0.18186,0.920618 0.40435,1.142939 l 0.40411,0.404207 h 8.50998 c 4.99768,0 8.94844,-3.250714 9.91355,-8.15725 l 0.31201,-1.585319 -0.26776,-1.520137 c -0.35574,-2.020162 -1.1552,-3.656669 -2.53627,-5.192754 l -1.13592,-1.263579 -1.54671,-0.772789 c -0.85039,-0.425042 -2.03595,-0.846227 -2.63426,-0.935947 l -1.08807,-0.16316 -0.30739,-1.293778 c -1.19357,-5.0244239 -5.42984,-9.2995699 -10.5317,-10.6284599 -0.80901,-0.210668 -2.5399,-0.383037 -3.84687,-0.383037 h -2.37653 l -2.00663,0.637307 c -2.32456,0.738166 -4.69903,2.210227 -6.2105,3.849924 l -1.05977,1.149627 -0.89696,-0.374781 c -1.06312,-0.444154 -3.20556,-0.484719 -4.64321,-0.0879 l -1.02891,0.284005 -1.32267,1.322252 -1.32291,1.322226 -0.41337,1.3971319 c -0.22764,0.768415 -0.41363,1.767821 -0.41363,2.220876 v 0.82372 l -1.42452,0.578221 c -1.87853,0.762345 -3.69662,2.433655 -4.70417,4.323737 l -0.81567,1.530452 -0.21479,1.570606 c -0.57593,4.21156 1.31289,8.159798 4.79061,10.013353 1.83248,0.976717 2.99824,1.275178 5.11548,1.309598 l 6.35165,0.02585 z"
       style="fill:#000000;stroke-width:0.264583"
       inkscape:export-xdpi="96"
       inkscape:export-ydpi="96"
       sodipodi:nodetypes="ccscccccccccccccccccccscccccsccccscccccsscccccccsccsccccccscccsccccccccccsccccccccc" />
    <path
       id="path954-8"
       d="m -165.66936,31.318985 4.43717,-4.400287 v -0.691762 c 0,-0.380466 -0.18186,-0.873648 -0.40411,-1.09597 l -0.40436,-0.404207 -1.84638,-0.0025 -1.84664,-0.0025 3.15105,-3.128709 3.15103,-3.12871 v -0.676057 c 0,-0.880336 -0.4378,-1.293289 -1.37076,-1.293289 h -0.75368 l -4.72527,4.529957 -4.72553,4.529956 v 0.530018 c 0,0.291541 0.19164,0.741715 0.42572,1.00046 l 0.4257,0.470392 h 1.88934 c 1.0392,0 1.88933,0.07014 1.88933,0.155882 0,0.08574 -1.33809,1.481526 -2.97329,3.10175 l -2.97329,2.945821 0.0795,0.815128 0.0795,0.815128 0.61555,0.305176 c 0.33877,0.167865 0.80178,0.241948 1.0289,0.16465 0.2274,-0.07727 2.41023,-2.120659 4.85054,-4.540811 z"
       style="fill:#000000;stroke-width:0.264583"
       inkscape:export-xdpi="96"
       inkscape:export-ydpi="96" />
    <path
       inkscape:export-ydpi="96"
       inkscape:export-xdpi="96"
       d="m -282.71184,0.4257911 c -3.96637,0 -7.0231,1.0932427 -9.92785,3.5513509 l -1.73114,1.4656196 -0.76872,-0.3012684 c -0.4228,-0.1656422 -1.51823,-0.3048991 -2.4343,-0.3093853 l -1.66557,-0.00812 -1.28121,0.5469451 c -1.53975,0.6569752 -2.48167,1.5198104 -3.18249,2.9172586 l -0.52199,1.0406114 -0.005,1.162547 -0.005,1.162548 -1.70659,0.671172 -1.70611,0.670707 -1.14909,1.057308 c -0.63214,0.581465 -1.50741,1.733261 -1.94533,2.559992 l -0.79575,1.503104 0.005,2.196847 0.005,2.196844 0.71317,1.387481 c 1.19383,2.323224 3.26441,3.959802 6.02618,4.762691 l 1.45135,0.421842 18.32127,-0.04834 18.32125,-0.04877 1.4724,-0.536585 h -0.002 l 1.47239,-0.536562 1.40433,-1.158037 1.40383,-1.158039 0.81376,-1.49182 0.81377,-1.492259 0.12262,-1.723506 0.1226,-1.723968 -0.58805,-1.649902 -0.58756,-1.65034 -1.43134,-1.39606 -1.43136,-1.396522 -1.50091,-0.640879 c -0.82507,-0.352531 -1.94433,-0.70851 -2.48729,-0.791298 l -0.98742,-0.150865 -0.12363,-0.385697 c -0.0679,-0.212284 -0.25496,-0.854457 -0.41588,-1.4267699 -0.16093,-0.5723596 -0.70513,-1.7170316 -1.20916,-2.5437162 l -0.91596,-1.5031116 -1.7121,-1.5071747 -1.71213,-1.5076373 -1.64254,-0.74295 c -2.24723,-1.01655441 -4.29209,-1.4452862 -6.89551,-1.4452862 z m 0.26175,2.4506619 1.70059,0.2628583 c 3.33447,0.5154725 6.50162,2.4611607 8.15771,5.0115664 0.85098,1.3105692 1.66605,3.4065443 1.66605,4.2843813 0,0.333527 0.16787,0.822291 0.37286,1.086235 l 0.37186,0.479653 1.59951,0.150865 c 2.07529,0.195751 3.55286,0.859014 4.82905,2.167478 l 1.02896,1.055064 0.38286,1.164374 c 0.48941,1.487288 0.48244,2.137923 -0.0395,3.596514 -0.55088,1.539295 -1.81405,2.846094 -3.47177,3.591564 l -1.33077,0.598444 -18.20665,-0.0049 -18.20715,-0.005 -1.02497,-0.42184 h 0.001 c -1.53926,-0.633283 -2.64041,-1.575868 -3.3812,-2.89379 l -0.66513,-1.183776 0.01,-1.503104 0.0105,-1.503106 0.40138,-0.839194 c 0.93272,-1.949562 2.83961,-3.286146 5.34002,-3.742836 l 1.56699,-0.286354 0.26324,-0.375775 0.26226,-0.376215 -0.33731,-1.270055 -0.33783,-1.270516 0.17967,-0.645849 c 0.42356,-1.5234788 2.02733,-2.6399387 3.79206,-2.6399157 h 0.87783 l 1.20114,0.7181142 1.20113,0.7176746 0.59855,-0.1354874 c 0.32927,-0.074577 0.92601,-0.5620226 1.32626,-1.0830681 1.05622,-1.3755558 2.89112,-2.7840575 4.62485,-3.5504561 l 1.51392,-0.6693441 1.86126,-0.2420923 z"
       style="fill:#000000;stroke-width:0.264583"
       id="path1110" />
    <path
       inkscape:export-ydpi="96"
       inkscape:export-xdpi="96"
       id="path1112"
       d="m -277.20988,34.87582 1.64328,-1.578063 v -0.515763 c 0,-0.733695 -0.73772,-1.45294 -1.49005,-1.45294 h -0.64188 l -1.49645,1.49645 -1.49645,1.496451 v 0.667073 0.667073 l 0.56962,0.398892 c 0.31313,0.219393 0.7267,0.39889 0.91888,0.39889 0.19218,0 1.08903,-0.710121 1.99305,-1.578063 z"
       style="fill:#000000;stroke-width:0.264583" />
    <path
       inkscape:export-ydpi="96"
       inkscape:export-xdpi="96"
       id="path1114"
       d="m -292.88263,34.197644 1.60151,-1.534706 v -0.553533 c 0,-0.767495 -0.72285,-1.490737 -1.49004,-1.490737 h -0.64188 l -1.49645,1.49645 -1.49646,1.496451 v 0.553481 c 0,0.668944 0.85406,1.580574 1.47339,1.572861 0.24651,-0.0031 1.16898,-0.696182 2.04993,-1.540267 z"
       style="fill:#000000;stroke-width:0.264583" />
    <path
       inkscape:export-ydpi="96"
       inkscape:export-xdpi="96"
       id="path1120"
       d="m -286.15138,39.163236 2.09529,-2.14674 v -0.5255 c 0,-0.727496 -0.67392,-1.330816 -1.48646,-1.330816 h -0.68083 l -2.11938,2.108329 c -2.10322,2.092365 -2.36459,2.592011 -1.85416,3.545818 l 0.26521,0.495648 h 0.84252 0.84227 z"
       style="fill:#000000;stroke-width:0.264583" />
    <path
       inkscape:export-ydpi="96"
       inkscape:export-xdpi="96"
       style="fill:#000000;stroke-width:0.264583"
       d="m -340.94648,35.384417 1.69677,-1.629436 v -0.532553 c 0,-0.757582 -0.76173,-1.500241 -1.53855,-1.500241 h -0.66278 l -1.54517,1.545167 -1.54516,1.545166 v 0.68879 0.68879 l 0.58816,0.411877 c 0.32333,0.226536 0.75036,0.411877 0.9488,0.411877 0.19844,0 1.12448,-0.73324 2.05793,-1.629437 z"
       id="path964" />
    <path
       inkscape:export-ydpi="96"
       inkscape:export-xdpi="96"
       style="fill:#000000;stroke-width:0.264583"
       d="m -360.7471,35.417675 1.65364,-1.584669 v -0.571552 c 0,-0.79248 -0.74639,-1.539267 -1.53855,-1.539267 h -0.66278 l -1.54517,1.545167 -1.54516,1.545166 v 0.5715 c 0,0.690722 0.88185,1.63203 1.52135,1.624066 0.25453,-0.0032 1.20703,-0.718847 2.11667,-1.590411 z"
       id="path962" />
    <path
       inkscape:export-ydpi="96"
       inkscape:export-xdpi="96"
       style="fill:#000000;stroke-width:0.264583"
       d="m -332.55601,37.057272 c 1.84838,-1.867905 3.36047,-3.567827 3.36047,-3.777589 0,-0.209788 -0.18547,-0.646033 -0.41196,-0.969459 l -0.41169,-0.588037 h -0.72575 -0.72575 l -3.36021,3.396165 -3.36047,3.396192 v 0.48559 c 0,0.72853 0.78581,1.453303 1.57533,1.453303 h 0.69982 z"
       id="path952" />
    <path
       inkscape:export-ydpi="96"
       inkscape:export-xdpi="96"
       style="fill:#000000;stroke-width:0.264583"
       d="m -353.36073,37.984002 4.05686,-4.056963 v -0.686646 c 0,-0.852197 -0.63474,-1.518206 -1.44675,-1.518206 h -0.61542 l -4.12829,4.128347 -4.12829,4.12832 v 0.615262 c 0,0.812112 0.66595,1.446821 1.51817,1.446821 h 0.6866 z"
       id="path946" />
    <path
       inkscape:export-ydpi="96"
       inkscape:export-xdpi="96"
       style="fill:#000000;stroke-width:0.264583"
       d="m -346.31872,41.026983 1.79125,-1.878307 v -0.45979 c 0,-0.636528 -0.57613,-1.164408 -1.27076,-1.164408 h -0.58205 l -1.81184,1.844699 c -1.79805,1.830732 -2.02149,2.2679 -1.58512,3.102441 l 0.22673,0.433672 h 0.72027 0.72005 z"
       id="path936" />
    <path
       id="path1976"
       style="fill:#000000;stroke-width:0.264583"
       d="m -343.05327,0.4257911 c -3.96637,0 -7.0231,1.0932427 -9.92785,3.5513509 l -1.73114,1.4656196 -0.76872,-0.3012684 c -0.4228,-0.1656422 -1.51823,-0.3048991 -2.4343,-0.3093853 l -1.66557,-0.00812 -1.28121,0.5469451 c -1.53975,0.6569752 -2.48167,1.5198104 -3.18249,2.9172586 l -0.52199,1.0406114 -0.005,1.162547 -0.005,1.162548 -1.70659,0.671172 -1.70611,0.670707 -1.14909,1.057308 c -0.63214,0.581465 -1.50741,1.733261 -1.94533,2.559992 l -0.79575,1.503104 0.005,2.196847 0.005,2.196844 0.71317,1.387481 c 1.19383,2.323224 3.26441,3.959802 6.02618,4.762691 l 1.45135,0.421842 18.32127,-0.04834 18.32125,-0.04877 1.4724,-0.536585 h -0.002 l 1.47239,-0.536562 1.40433,-1.158037 1.40383,-1.158039 0.81376,-1.49182 0.81377,-1.492259 0.12262,-1.723506 0.1226,-1.723968 -0.58805,-1.649902 -0.58756,-1.65034 -1.43134,-1.39606 -1.43136,-1.396522 -1.50091,-0.640879 c -0.82507,-0.352531 -1.94433,-0.70851 -2.48729,-0.791298 l -0.98742,-0.150865 -0.12363,-0.385697 c -0.0679,-0.212284 -0.25496,-0.854457 -0.41588,-1.4267699 -0.16093,-0.5723596 -0.70513,-1.7170316 -1.20916,-2.5437162 l -0.91596,-1.5031116 -1.7121,-1.5071747 -1.71213,-1.5076373 -1.64254,-0.74295 c -2.24723,-1.01655441 -4.29209,-1.4452862 -6.89551,-1.4452862 z m 0.26175,2.4506619 1.70059,0.2628583 c 3.33447,0.5154725 6.50162,2.4611607 8.15771,5.0115664 0.85098,1.3105692 1.66605,3.4065443 1.66605,4.2843813 0,0.333527 0.16787,0.822291 0.37286,1.086235 l 0.37186,0.479653 1.59951,0.150865 c 2.07529,0.195751 3.55286,0.859014 4.82905,2.167478 l 1.02896,1.055064 0.38286,1.164374 c 0.48941,1.487288 0.48244,2.137923 -0.0395,3.596514 -0.55088,1.539295 -1.81405,2.846094 -3.47177,3.591564 l -1.33077,0.598444 -18.20665,-0.0049 -18.20715,-0.005 -1.02497,-0.42184 h 10e-4 c -1.53926,-0.633283 -2.64041,-1.575868 -3.3812,-2.89379 l -0.66513,-1.183776 0.01,-1.503104 0.0105,-1.503106 0.40138,-0.839194 c 0.93272,-1.949562 2.83961,-3.286146 5.34002,-3.742836 l 1.56699,-0.286354 0.26324,-0.375775 0.26226,-0.376215 -0.33731,-1.270055 -0.33783,-1.270516 0.17967,-0.645849 c 0.42356,-1.5234788 2.02733,-2.6399387 3.79206,-2.6399157 h 0.87783 l 1.20114,0.7181142 1.20113,0.7176746 0.59855,-0.1354874 c 0.32927,-0.074577 0.92601,-0.5620226 1.32626,-1.0830681 1.05622,-1.3755558 2.89112,-2.7840575 4.62485,-3.5504561 l 1.51392,-0.6693441 1.86126,-0.2420923 z"
       inkscape:export-xdpi="96"
       inkscape:export-ydpi="96" />
    <path
       inkscape:export-ydpi="96"
       inkscape:export-xdpi="96"
       style="fill:#000000;stroke-width:0.264583"
       d="m -397.22976,29.456355 0.6555,-0.655537 V 26.53637 c 0,-1.245458 0.18316,-2.26449 0.40704,-2.26449 0.22388,0 1.02166,0.374717 1.77285,0.832737 1.65576,1.009481 3.36387,1.072428 4.27866,0.15768 l 0.67814,-0.678145 -0.12693,-1.081229 -0.12693,-1.081229 -1.3054,-0.847755 c -0.71799,-0.46628 -1.64921,-1.051278 -2.0694,-1.30006 l -0.76395,-0.452306 1.91989,-1.125112 1.91985,-1.125112 0.23957,-0.916083 0.23956,-0.916082 -0.62112,-0.947912 -0.62109,-0.94791 h -1.10087 c -0.60548,0 -1.91514,0.47721 -2.91035,1.060414 l -1.80951,1.060454 v -2.43702 -2.436977 l -0.50057,-0.500569 c -0.27532,-0.275313 -1.11344,-0.500569 -1.86245,-0.500569 h -1.36189 l -0.43182,0.806876 c -0.23752,0.443753 -0.43182,1.760918 -0.43182,2.926993 v 2.120158 l -2.1361,-1.082437 -2.13613,-1.082481 -1.00719,0.252788 -1.00719,0.252829 -0.40245,1.058494 -0.40246,1.058495 0.41777,0.780595 c 0.22976,0.429364 1.16837,1.202491 2.08574,1.718077 0.91742,0.515629 1.66802,1.045063 1.66802,1.176547 0,0.131488 -0.84471,0.749309 -1.87713,1.372935 l -1.87713,1.13383 v 1.124528 c 0,1.281956 1.06024,2.652681 2.04607,2.645214 0.36592,-0.0041 1.48227,-0.472037 2.48078,-1.042851 0.99847,-0.570775 1.8901,-1.037805 1.98142,-1.037805 0.0913,0 0.16598,1.019032 0.16598,2.26449 v 2.264448 l 0.65549,0.655537 c 0.36054,0.360535 1.098,0.655494 1.63878,0.655494 0.54078,0 1.27825,-0.294959 1.63878,-0.655494 z"
       id="path948" />
    <path
       id="path2001"
       d="m -443.43161,18.899124 0.44397,-0.443998 v -1.533721 c 0,-0.843554 0.12406,-1.533749 0.27569,-1.533749 0.15164,0 0.69198,0.253798 1.20076,0.564017 1.12146,0.683726 2.27837,0.72636 2.89796,0.106797 l 0.4593,-0.45931 -0.086,-0.732322 -0.086,-0.732321 -0.88415,-0.574188 c -0.4863,-0.315814 -1.11702,-0.712035 -1.40161,-0.880537 l -0.51743,-0.306348 1.30035,-0.762044 1.30032,-0.762043 0.16227,-0.620467 0.16225,-0.6204672 -0.42069,-0.6420251 -0.42066,-0.642023 h -0.74563 c -0.41009,0 -1.29713,0.323216 -1.97119,0.718223 l -1.22559,0.7182501 V 8.1102437 6.4596677 l -0.33904,-0.339037 c -0.18647,-0.186471 -0.75414,-0.339038 -1.26144,-0.339038 h -0.92242 l -0.29247,0.546501 c -0.16088,0.300556 -0.29248,1.192677 -0.29248,1.982465 v 1.4359921 l -1.44678,-0.7331391 -1.44681,-0.733169 -0.68218,0.171214 -0.68217,0.171243 -0.27259,0.716922 -0.27258,0.7169243 0.28295,0.5287 c 0.15562,0.29081 0.79135,0.814453 1.41268,1.163661 0.62138,0.349238 1.12976,0.707826 1.12976,0.796881 0,0.08906 -0.57212,0.50751 -1.27139,0.929895 l -1.27138,0.767948 v 0.761648 c 0,0.868274 0.7181,1.796672 1.38581,1.791615 0.24784,-0.0028 1.00395,-0.319713 1.68024,-0.706328 0.67627,-0.386588 1.28017,-0.70291 1.34203,-0.70291 0.0618,0 0.11241,0.690195 0.11241,1.533749 v 1.533721 l 0.44397,0.443998 c 0.2442,0.244192 0.74368,0.443969 1.10995,0.443969 0.36628,0 0.86577,-0.199777 1.10996,-0.443969 z"
       style="fill:#000000;stroke-width:0.264583"
       inkscape:export-xdpi="96"
       inkscape:export-ydpi="96" />
    <path
       inkscape:export-ydpi="96"
       inkscape:export-xdpi="96"
       style="fill:#000000;stroke-width:0.264583"
       d="m -425.55548,18.899124 0.44398,-0.443998 v -1.533721 c 0,-0.843554 0.12405,-1.533749 0.27569,-1.533749 0.15163,0 0.69197,0.253798 1.20076,0.564017 1.12145,0.683726 2.27836,0.72636 2.89795,0.106797 l 0.45931,-0.45931 -0.086,-0.732322 -0.086,-0.732321 -0.88415,-0.574188 c -0.4863,-0.315814 -1.11702,-0.712035 -1.40162,-0.880537 l -0.51742,-0.306348 1.30035,-0.762044 1.30032,-0.762043 0.16226,-0.620467 0.16226,-0.6204672 -0.42069,-0.6420251 -0.42067,-0.642023 h -0.74562 c -0.4101,0 -1.29714,0.323216 -1.9712,0.718223 l -1.22559,0.7182501 V 8.1102437 6.4596677 l -0.33903,-0.339037 c -0.18648,-0.186471 -0.75414,-0.339038 -1.26145,-0.339038 h -0.92241 l -0.29248,0.546501 c -0.16087,0.300556 -0.29247,1.192677 -0.29247,1.982465 v 1.4359921 l -1.44679,-0.7331391 -1.44681,-0.733169 -0.68218,0.171214 -0.68217,0.171243 -0.27258,0.716922 -0.27259,0.7169243 0.28296,0.5287 c 0.15562,0.29081 0.79134,0.814453 1.41268,1.163661 0.62137,0.349238 1.12976,0.707826 1.12976,0.796881 0,0.08906 -0.57213,0.50751 -1.27139,0.929895 l -1.27139,0.767948 v 0.761648 c 0,0.868274 0.71811,1.796672 1.38581,1.791615 0.24784,-0.0028 1.00395,-0.319713 1.68025,-0.706328 0.67626,-0.386588 1.28017,-0.70291 1.34202,-0.70291 0.0618,0 0.11242,0.690195 0.11242,1.533749 v 1.533721 l 0.44397,0.443998 c 0.24419,0.244192 0.74368,0.443969 1.10995,0.443969 0.36627,0 0.86576,-0.199777 1.10995,-0.443969 z"
       id="path2003" />
    <path
       id="path2005"
       d="m -435.03198,32.898507 0.44397,-0.443998 v -1.533721 c 0,-0.843554 0.12406,-1.533749 0.27569,-1.533749 0.15164,0 0.69198,0.253798 1.20076,0.564017 1.12146,0.683726 2.27837,0.72636 2.89796,0.106797 l 0.4593,-0.45931 -0.086,-0.732322 -0.086,-0.732321 -0.88415,-0.574188 c -0.4863,-0.315814 -1.11702,-0.712035 -1.40161,-0.880537 l -0.51743,-0.306348 1.30035,-0.762044 1.30032,-0.762043 0.16227,-0.620467 0.16225,-0.620467 -0.42069,-0.642025 -0.42066,-0.642023 h -0.74563 c -0.41009,0 -1.29713,0.323216 -1.97119,0.718223 l -1.22559,0.71825 v -1.650604 -1.650576 l -0.33904,-0.339037 c -0.18647,-0.186471 -0.75414,-0.339038 -1.26144,-0.339038 h -0.92242 l -0.29247,0.546501 c -0.16088,0.300556 -0.29248,1.192677 -0.29248,1.982465 v 1.435992 l -1.44679,-0.733139 -1.44681,-0.733169 -0.68217,0.171214 -0.68217,0.171243 -0.27259,0.716922 -0.27258,0.716924 0.28295,0.5287 c 0.15562,0.29081 0.79135,0.814453 1.41268,1.163661 0.62138,0.349238 1.12976,0.707826 1.12976,0.796881 0,0.08906 -0.57212,0.50751 -1.27139,0.929895 l -1.27138,0.767948 v 0.761648 c 0,0.868274 0.7181,1.796672 1.38581,1.791615 0.24784,-0.0028 1.00395,-0.319713 1.68024,-0.706328 0.67627,-0.386588 1.28017,-0.70291 1.34203,-0.70291 0.0618,0 0.11241,0.690195 0.11241,1.533749 v 1.533721 l 0.44397,0.443998 c 0.2442,0.244192 0.74368,0.443969 1.10995,0.443969 0.36628,0 0.86577,-0.199777 1.10996,-0.443969 z"
       style="fill:#000000;stroke-width:0.264583"
       inkscape:export-xdpi="96"
       inkscape:export-ydpi="96" />
    <path
       inkscape:export-ydpi="96"
       inkscape:export-xdpi="96"
       style="fill:#000000;stroke-width:0.264583"
       d="m -496.57841,31.572154 c 0.612,-0.611899 0.64287,-0.98849 0.14046,-1.705964 l -0.3743,-0.534182 -2.03692,-0.13961 -2.03666,-0.139611 -1.12907,-0.499428 c -1.47123,-0.650743 -2.72661,-1.928048 -3.47521,-3.535715 l -0.60146,-1.29166 v -1.414883 -1.414884 l 0.60866,-1.307171 c 1.08123,-2.322338 2.90282,-3.64852 5.61631,-4.088755 0.52608,-0.08536 1.14374,-0.342556 1.3727,-0.571561 l 0.41649,-0.416388 -0.16387,-0.666821 c -0.0903,-0.366763 -0.22252,-1.245663 -0.29378,-1.953105 l -0.12992,-1.286257 0.51657,-0.8220991 c 0.63901,-1.017069 1.50569,-1.601931 2.6484,-1.7873834 l 0.87543,-0.1420796 0.88829,0.415641 c 0.48826,0.228619 1.18541,0.605055 1.54891,0.83653 l 0.66113,0.420864 0.68481,-0.171896 0.68506,-0.171921 0.36684,-0.703711 c 0.64158,-1.230845 3.00006,-3.3408443 4.62821,-4.1408457 0.86565,-0.4254163 2.35771,-0.9173323 3.31546,-1.0931124 l 1.74133,-0.3196351 1.92527,0.2993376 1.92527,0.2993124 1.50544,0.7599459 c 0.82809,0.4179569 2.15499,1.3534778 2.94861,2.0789007 l 1.44319,1.3189518 0.8906,1.7799228 c 0.48955,0.9789701 1.01974,2.4470271 1.17795,3.2623601 0.15821,0.815333 0.38845,1.726852 0.51168,2.025572 l 0.22406,0.54311 1.62943,0.1827 c 2.94733,0.330413 4.85717,1.544692 5.9829,3.804003 l 0.6632,1.330736 v 1.699738 1.699737 l -0.6632,1.330736 c -1.17101,2.349813 -3.20792,3.581892 -6.35514,3.844032 l -1.85684,0.154659 -0.31333,0.40849 c -0.46923,0.611436 -0.39308,1.429084 0.1811,1.948654 l 0.51065,0.46223 2.20619,-0.137629 2.20644,-0.137656 1.60911,-0.79218 c 2.91363,-1.434409 4.7432,-3.889874 5.35675,-7.18951 l 0.29609,-1.591563 -0.29172,-1.568128 c -0.75812,-4.076793 -3.61721,-7.055301 -7.65632,-7.975593 l -1.29732,-0.295582 -0.31024,-1.318697 c -0.17056,-0.725295 -0.67657,-2.0711571 -1.12445,-2.9908311 l -0.8142,-1.6721344 -1.95151,-1.9559314 -1.95151,-1.9559605 -1.92938,-0.9131914 c -2.33379,-1.10453476 -4.01184,-1.47757486 -6.64713,-1.47757486 -3.74378,0 -7.43714,1.51531336 -10.14008,4.16019316 l -1.4972,1.4649186 -0.88237,-0.3686667 c -1.07249,-0.4481834 -3.17809,-0.4771761 -4.56107,-0.062849 -1.34311,0.4024703 -3.37823,2.2569676 -3.89556,3.5503762 -0.2269,0.566725 -0.48672,1.6637221 -0.57779,2.4377671 l -0.16541,1.407345 -1.60499,0.751097 c -2.15654,1.009094 -3.56268,2.33857 -4.51091,4.264278 -2.73612,5.558046 -0.11653,11.962862 5.64693,13.806866 l 1.43829,0.460171 1.86508,0.01389 1.86507,0.01389 0.5145,-0.514502 z"
       id="path910" />
    <path
       inkscape:export-ydpi="96"
       inkscape:export-xdpi="96"
       style="fill:#000000;stroke-width:0.264583"
       d="m -474.71203,23.854609 0.5145,-0.514502 v -1.286258 c 0,-0.707441 0.0867,-1.285486 0.19294,-1.28456 0.10599,0 0.54023,0.231681 0.96469,0.512806 0.90476,0.599138 2.2507,0.671323 2.68828,0.144189 0.16901,-0.203692 0.26986,-0.691929 0.22432,-1.085009 l -0.0828,-0.714697 -0.80494,-0.522811 c -0.44298,-0.287557 -1.01459,-0.646756 -1.27082,-0.798252 l -0.46562,-0.275414 1.11879,-0.624966 c 0.61508,-0.343714 1.24046,-0.82143 1.38941,-1.061548 l 0.27063,-0.436634 -0.25185,-0.720998 -0.25211,-0.721025 -0.83812,-0.08111 -0.83838,-0.08111 -0.85948,0.531301 c -0.47283,0.292212 -0.93279,0.531302 -1.02232,0.531302 -0.0895,0 -0.16258,-0.495183 -0.16258,-1.100393 0,-0.60521 -0.18033,-1.357671 -0.40054,-1.672135 l -0.40028,-0.571737 h -0.74269 -0.74268 l -0.40029,0.571741 -0.40054,0.571742 v 1.239874 1.23985 l -1.11595,-0.65396 c -1.30195,-0.763059 -1.88103,-0.815281 -2.52956,-0.228233 -0.97447,0.88178 -0.49881,2.016543 1.20162,2.867428 l 1.02901,0.514888 -0.87646,0.475555 c -1.81593,0.985479 -2.2867,1.982483 -1.39893,2.963486 0.57856,0.639373 1.25204,0.59137 2.57432,-0.183549 l 1.11595,-0.653959 v 1.297087 1.297114 l 0.51451,0.514503 c 0.28297,0.282977 0.74603,0.514503 1.029,0.514503 0.28298,0 0.74603,-0.231526 1.02901,-0.514503 z"
       id="path908" />
    <path
       inkscape:export-ydpi="96"
       inkscape:export-xdpi="96"
       style="fill:#000000;stroke-width:0.264583"
       d="m -487.80279,28.578698 c 0.19217,-0.2315 0.3671,-0.955021 0.38896,-1.607822 0.0206,-0.652776 0.0906,-1.244762 0.15307,-1.315506 0.0628,-0.07074 0.70641,0.148922 1.43057,0.48816 l 1.31688,0.616786 0.65599,-0.429764 0.65599,-0.42979 v -0.768205 -0.768204 l -1.2842,-0.790174 -1.2842,-0.790173 1.21731,-0.815256 c 1.36369,-0.913269 1.58519,-1.448711 0.98065,-2.371446 l -0.41315,-0.630473 -0.5729,0.0031 c -0.31513,0.0025 -1.0766,0.291131 -1.69246,0.643128 -0.61586,0.352023 -1.13756,0.640042 -1.15943,0.640042 -0.0231,0 -0.008,-0.491993 0.034,-1.093319 0.0406,-0.601325 -0.0772,-1.382726 -0.26137,-1.736447 l -0.33519,-0.643129 -0.72443,-0.08361 -0.72416,-0.08358 -0.49161,0.445018 -0.49186,0.445046 v 1.375009 c 0,0.756242 -0.0471,1.375009 -0.10496,1.375009 -0.0576,0 -0.69175,-0.304457 -1.40897,-0.676597 l -1.304,-0.676571 -0.64905,0.425261 -0.64904,0.425263 v 0.747161 0.747135 l 0.66422,0.522582 c 0.36555,0.287427 0.88649,0.593015 1.15763,0.679143 0.74449,0.236235 0.60094,0.559805 -0.53585,1.207513 -1.11853,0.637417 -1.41797,1.183074 -1.17667,2.144654 l 0.15563,0.620645 0.69381,0.174133 0.69381,0.174134 1.23172,-0.656789 1.23172,-0.656789 v 1.368579 1.368577 l 0.40414,0.404271 c 0.52737,0.527288 1.75369,0.517975 2.19744,-0.01672 z"
       id="path896" />
    <path
       inkscape:export-ydpi="96"
       inkscape:export-xdpi="96"
       style="fill:#000000;stroke-width:0.264583"
       d="m -472.97544,35.837281 1.52447,-1.454037 v -0.809776 c 0,-0.97843 -0.39797,-1.42718 -1.26594,-1.42718 h -0.64853 l -1.48665,1.471144 -1.48666,1.471144 v 0.700907 0.700908 l 0.57187,0.400464 c 0.87723,0.614599 1.15069,0.511415 2.79144,-1.053574 z"
       id="path886" />
    <path
       inkscape:export-ydpi="96"
       inkscape:export-xdpi="96"
       style="fill:#000000;stroke-width:0.264583"
       d="m -492.79906,37.581182 1.52447,-1.454037 v -0.852171 -0.852171 l -0.49753,-0.266307 c -0.90732,-0.485614 -1.4033,-0.27989 -2.90359,1.204837 l -1.48666,1.471144 v 0.700908 0.700907 l 0.57187,0.400463 c 0.87723,0.614599 1.15069,0.511416 2.79144,-1.053573 z"
       id="path880" />
    <path
       inkscape:export-ydpi="96"
       inkscape:export-xdpi="96"
       style="fill:#000000;stroke-width:0.264583"
       d="m -481.41594,34.094241 3.91228,-3.941812 v -0.604155 c 0,-0.81914 -0.7095,-1.545053 -1.50981,-1.545053 h -0.65856 l -3.93209,3.932269 -3.93235,3.932269 v 0.775433 c 0,0.987769 0.41083,1.392837 1.41283,1.392837 h 0.79542 z"
       id="path878" />
    <path
       sodipodi:nodetypes="ccsscccscc"
       style="fill:#000000;stroke-width:0.264583"
       d="m -557.81484,9.9423534 0.16244,-0.133954 v -0.43003 c 0,-0.596254 -0.55101,-1.158129 -1.13581,-1.158129 h -0.48928 l -0.61153,0.6334 -0.61153,0.633401 v 0.42999 c 0,0.5196916 0.65102,1.2279216 1.12311,1.2219296 0.18791,-0.0024 0.89108,-0.540852 1.5626,-1.1966076 z"
       id="path1114-7"
       inkscape:export-xdpi="96"
       inkscape:export-ydpi="96" />
    <path
       inkscape:export-ydpi="96"
       inkscape:export-xdpi="96"
       id="path2061"
       d="m -552.64584,10.373104 0.16244,-0.133954 V 9.8091196 c 0,-0.596254 -0.551,-1.158129 -1.1358,-1.158129 h -0.48929 l -0.61152,0.6334 -0.61154,0.633401 v 0.4299904 c 0,0.519691 0.65102,1.227921 1.12312,1.221929 0.1879,-0.0024 0.89107,-0.540852 1.56259,-1.196607 z"
       style="fill:#000000;stroke-width:0.264583"
       sodipodi:nodetypes="ccsscccscc" />
    <path
       sodipodi:nodetypes="ccsscccscc"
       style="fill:#000000;stroke-width:0.264583"
       d="m -555.01497,15.111357 0.16245,-0.133954 v -0.430031 c 0,-0.596254 -0.55101,-1.158129 -1.13581,-1.158129 h -0.48928 l -0.61153,0.6334 -0.61153,0.633401 v 0.429991 c 0,0.519691 0.65102,1.227921 1.12311,1.221929 0.18791,-0.0024 0.89108,-0.540852 1.56259,-1.196607 z"
       id="path2063"
       inkscape:export-xdpi="96"
       inkscape:export-ydpi="96" />
    <path
       inkscape:export-ydpi="96"
       inkscape:export-xdpi="96"
       id="path2065"
       d="m -547.47684,15.111357 0.16245,-0.133954 v -0.430031 c 0,-0.596254 -0.55101,-1.158129 -1.13581,-1.158129 h -0.48929 l -0.61152,0.6334 -0.61153,0.633401 v 0.429991 c 0,0.519691 0.65102,1.227921 1.12311,1.221929 0.18791,-0.0024 0.89107,-0.540852 1.56259,-1.196607 z"
       style="fill:#000000;stroke-width:0.264583"
       sodipodi:nodetypes="ccsscccscc" />
    <path
       sodipodi:nodetypes="ccsscccscc"
       style="fill:#000000;stroke-width:0.264583"
       d="m -535.41583,23.080236 0.16244,-0.133954 v -0.430031 c 0,-0.596254 -0.551,-1.158129 -1.1358,-1.158129 h -0.48929 l -0.61152,0.6334 -0.61154,0.633401 v 0.429991 c 0,0.519691 0.65102,1.227921 1.12312,1.221929 0.1879,-0.0024 0.89107,-0.540852 1.56259,-1.196607 z"
       id="path2067"
       inkscape:export-xdpi="96"
       inkscape:export-ydpi="96" />
    <path
       inkscape:export-ydpi="96"
       inkscape:export-xdpi="96"
       id="path2071"
       d="m -543.38471,21.14186 0.16244,-0.133954 v -0.430031 c 0,-0.596254 -0.551,-1.158129 -1.1358,-1.158129 h -0.48929 l -0.61152,0.6334 -0.61154,0.633401 v 0.429991 c 0,0.519691 0.65102,1.227921 1.12312,1.221929 0.1879,-0.0024 0.89107,-0.540852 1.56259,-1.196607 z"
       style="fill:#000000;stroke-width:0.264583"
       sodipodi:nodetypes="ccsscccscc" />
    <path
       sodipodi:nodetypes="ccsscccscc"
       style="fill:#000000;stroke-width:0.264583"
       d="m -550.49209,21.357235 0.16244,-0.133954 V 20.79325 c 0,-0.596254 -0.551,-1.158129 -1.1358,-1.158129 h -0.48929 l -0.61152,0.6334 -0.61154,0.633401 v 0.429991 c 0,0.519691 0.65103,1.227921 1.12312,1.221929 0.18791,-0.0024 0.89107,-0.540852 1.56259,-1.196607 z"
       id="path2073"
       inkscape:export-xdpi="96"
       inkscape:export-ydpi="96" />
    <path
       inkscape:export-ydpi="96"
       inkscape:export-xdpi="96"
       id="path2075"
       d="m -556.95334,22.00336 0.16244,-0.133954 v -0.430031 c 0,-0.596254 -0.551,-1.158129 -1.13581,-1.158129 h -0.48928 l -0.61153,0.6334 -0.61153,0.633401 v 0.429991 c 0,0.519691 0.65102,1.227921 1.12312,1.221929 0.1879,-0.0024 0.89107,-0.540852 1.56259,-1.196607 z"
       style="fill:#000000;stroke-width:0.264583"
       sodipodi:nodetypes="ccsscccscc" />
    <path
       sodipodi:nodetypes="ccsscccscc"
       style="fill:#000000;stroke-width:0.264583"
       d="m -543.38471,9.9423534 0.16244,-0.133954 v -0.430031 c 0,-0.596254 -0.551,-1.158129 -1.1358,-1.158129 h -0.48929 l -0.61152,0.6334 -0.61154,0.633401 v 0.429991 c 0,0.5196906 0.65102,1.2279206 1.12312,1.2219286 0.1879,-0.0024 0.89107,-0.540852 1.56259,-1.1966066 z"
       id="path2077"
       inkscape:export-xdpi="96"
       inkscape:export-ydpi="96" />
    <path
       inkscape:export-ydpi="96"
       inkscape:export-xdpi="96"
       id="path2079"
       d="m -540.36946,15.757482 0.16244,-0.133954 v -0.430031 c 0,-0.596254 -0.551,-1.158129 -1.1358,-1.158129 h -0.48929 l -0.61152,0.6334 -0.61153,0.633401 v 0.429991 c 0,0.51969 0.65102,1.22792 1.12311,1.221928 0.18791,-0.0024 0.89107,-0.540852 1.56259,-1.196606 z"
       style="fill:#000000;stroke-width:0.264583"
       sodipodi:nodetypes="ccsscccscc" />
    <path
       sodipodi:nodetypes="ccsscccscc"
       style="fill:#000000;stroke-width:0.264583"
       d="m -535.84658,11.44998 0.16244,-0.133954 v -0.430031 c 0,-0.596254 -0.551,-1.1581294 -1.13581,-1.1581294 h -0.48928 l -0.61153,0.6334004 -0.61153,0.633401 v 0.429991 c 0,0.51969 0.65102,1.22792 1.12312,1.221928 0.1879,-0.0024 0.89107,-0.540852 1.56259,-1.196606 z"
       id="path2081"
       inkscape:export-xdpi="96"
       inkscape:export-ydpi="96" />
    <path
       inkscape:export-ydpi="96"
       inkscape:export-xdpi="96"
       id="path2083"
       d="m -561.6916,14.895982 0.16245,-0.133954 v -0.430031 c 0,-0.596254 -0.55101,-1.15813 -1.13581,-1.15813 h -0.48928 l -0.61153,0.633401 -0.61153,0.633401 v 0.429991 c 0,0.51969 0.65102,1.22792 1.12311,1.221928 0.18791,-0.0024 0.89108,-0.540852 1.56259,-1.196606 z"
       style="fill:#000000;stroke-width:0.264583"
       sodipodi:nodetypes="ccsscccscc" />
    <path
       sodipodi:nodetypes="ccsscccscc"
       style="fill:#000000;stroke-width:0.264583"
       d="m -563.4146,6.0656022 0.16245,-0.133954 v -0.430031 c 0,-0.596254 -0.55101,-1.15813 -1.13581,-1.15813 h -0.48928 l -0.61153,0.633401 -0.61153,0.633401 v 0.429991 c 0,0.51969 0.65102,1.22792 1.12311,1.221928 0.18791,-0.0024 0.89108,-0.540852 1.56259,-1.196606 z"
       id="path2085"
       inkscape:export-xdpi="96"
       inkscape:export-ydpi="96" />
    <path
       inkscape:export-ydpi="96"
       inkscape:export-xdpi="96"
       id="path2087"
       d="m -548.33834,5.2041017 0.16244,-0.133954 v -0.430031 c 0,-0.596254 -0.551,-1.15813 -1.1358,-1.15813 h -0.48929 l -0.61152,0.633401 -0.61153,0.633401 v 0.429991 c 0,0.51969 0.65102,1.22792 1.12311,1.221928 0.18791,-0.0024 0.89107,-0.540852 1.56259,-1.196606 z"
       style="fill:#000000;stroke-width:0.264583"
       sodipodi:nodetypes="ccsscccscc" />
    <path
       sodipodi:nodetypes="ccsscccscc"
       style="fill:#000000;stroke-width:0.264583"
       d="m -561.90697,25.233988 0.16244,-0.133954 v -0.430031 c 0,-0.596254 -0.551,-1.15813 -1.1358,-1.15813 h -0.48929 l -0.61152,0.633401 -0.61154,0.633401 v 0.429991 c 0,0.51969 0.65102,1.22792 1.12312,1.221928 0.1879,-0.0024 0.89107,-0.540852 1.56259,-1.196606 z"
       id="path2089"
       inkscape:export-xdpi="96"
       inkscape:export-ydpi="96" />
    <path
       inkscape:export-ydpi="96"
       inkscape:export-xdpi="96"
       id="path2091"
       d="m -561.90697,25.233988 0.16244,-0.133954 v -0.430031 c 0,-0.596254 -0.551,-1.15813 -1.1358,-1.15813 h -0.48929 l -0.61152,0.633401 -0.61154,0.633401 v 0.429991 c 0,0.51969 0.65102,1.22792 1.12312,1.221928 0.1879,-0.0024 0.89107,-0.540852 1.56259,-1.196606 z"
       style="fill:#000000;stroke-width:0.264583"
       sodipodi:nodetypes="ccsscccscc" />
    <path
       sodipodi:nodetypes="ccsscccscc"
       style="fill:#000000;stroke-width:0.264583"
       d="m -545.75384,27.172363 0.16245,-0.133954 v -0.430031 c 0,-0.596254 -0.55101,-1.158129 -1.13581,-1.158129 h -0.48928 l -0.61153,0.6334 -0.61153,0.633401 v 0.429991 c 0,0.519691 0.65102,1.227921 1.12311,1.221929 0.18791,-0.0024 0.89108,-0.540852 1.56259,-1.196607 z"
       id="path2093"
       inkscape:export-xdpi="96"
       inkscape:export-ydpi="96" />
    <path
       inkscape:export-ydpi="96"
       inkscape:export-xdpi="96"
       id="path2095"
       d="m -552.86121,27.387738 0.16244,-0.133954 v -0.430031 c 0,-0.596254 -0.55101,-1.158129 -1.13581,-1.158129 h -0.48928 l -0.61153,0.6334 -0.61153,0.633401 v 0.429991 c 0,0.519691 0.65102,1.227921 1.12311,1.221929 0.18791,-0.0024 0.89108,-0.540852 1.5626,-1.196607 z"
       style="fill:#000000;stroke-width:0.264583"
       sodipodi:nodetypes="ccsscccscc" />
    <path
       sodipodi:nodetypes="ccsscccscc"
       style="fill:#000000;stroke-width:0.264583"
       d="m -529.81608,10.157729 0.16245,-0.133954 V 9.5937443 c 0,-0.596254 -0.55101,-1.158129 -1.13581,-1.158129 h -0.48929 l -0.61152,0.6334 -0.61153,0.633401 v 0.4299907 c 0,0.519691 0.65102,1.227921 1.12311,1.221929 0.18791,-0.0024 0.89107,-0.540852 1.56259,-1.196607 z"
       id="path2097"
       inkscape:export-xdpi="96"
       inkscape:export-ydpi="96" />
    <path
       sodipodi:nodetypes="ccsscccscc"
       style="fill:#000000;stroke-width:0.264583"
       d="m -525.72395,16.188232 0.16244,-0.133954 v -0.430031 c 0,-0.596254 -0.551,-1.158129 -1.1358,-1.158129 h -0.48929 l -0.61152,0.6334 -0.61154,0.633401 v 0.429991 c 0,0.519691 0.65102,1.227921 1.12312,1.221929 0.1879,-0.0024 0.89107,-0.540852 1.56259,-1.196607 z"
       id="path2099"
       inkscape:export-xdpi="96"
       inkscape:export-ydpi="96" />
    <path
       inkscape:export-ydpi="96"
       inkscape:export-xdpi="96"
       id="path2101"
       d="m -532.83133,16.403607 0.16244,-0.133954 v -0.430031 c 0,-0.596254 -0.551,-1.158129 -1.1358,-1.158129 h -0.48929 l -0.61152,0.6334 -0.61154,0.633401 v 0.429991 c 0,0.519691 0.65103,1.227921 1.12312,1.221929 0.18791,-0.0024 0.89107,-0.540852 1.56259,-1.196607 z"
       style="fill:#000000;stroke-width:0.264583"
       sodipodi:nodetypes="ccsscccscc" />
    <path
       sodipodi:nodetypes="ccsscccscc"
       style="fill:#000000;stroke-width:0.264583"
       d="m -522.7087,10.803854 0.16244,-0.133954 v -0.430031 c 0,-0.5962537 -0.551,-1.1581287 -1.1358,-1.1581287 h -0.48929 l -0.61152,0.6334 -0.61153,0.6334007 v 0.429991 c 0,0.51969 0.65102,1.22792 1.12311,1.221928 0.18791,-0.0024 0.89107,-0.540852 1.56259,-1.196606 z"
       id="path2103"
       inkscape:export-xdpi="96"
       inkscape:export-ydpi="96" />
    <path
       inkscape:export-ydpi="96"
       inkscape:export-xdpi="96"
       id="path2105"
       d="m -528.09308,22.218735 0.16245,-0.133954 V 21.65475 c 0,-0.596254 -0.55101,-1.158129 -1.13581,-1.158129 h -0.48928 l -0.61153,0.6334 -0.61153,0.633401 v 0.429991 c 0,0.519691 0.65102,1.227921 1.12311,1.221929 0.18791,-0.0024 0.89108,-0.540852 1.56259,-1.196607 z"
       style="fill:#000000;stroke-width:0.264583"
       sodipodi:nodetypes="ccsscccscc" />
    <path
       inkscape:export-ydpi="96"
       inkscape:export-xdpi="96"
       id="path2107"
       d="m -532.61595,5.8502269 0.16244,-0.133954 v -0.430031 c 0,-0.596254 -0.55101,-1.1581294 -1.13581,-1.1581294 h -0.48928 l -0.61153,0.6334004 -0.61153,0.633401 v 0.429991 c 0,0.51969 0.65102,1.22792 1.12311,1.221928 0.18791,-0.0024 0.89108,-0.540852 1.5626,-1.196606 z"
       style="fill:#000000;stroke-width:0.264583"
       sodipodi:nodetypes="ccsscccscc" />
    <path
       sodipodi:nodetypes="ccsscccscc"
       style="fill:#000000;stroke-width:0.264583"
       d="m -520.9857,30.618366 0.16244,-0.133954 v -0.430031 c 0,-0.596254 -0.551,-1.15813 -1.1358,-1.15813 h -0.48929 l -0.61152,0.633401 -0.61153,0.633401 v 0.429991 c 0,0.51969 0.65102,1.22792 1.12311,1.221928 0.18791,-0.0024 0.89107,-0.540852 1.56259,-1.196606 z"
       id="path2109"
       inkscape:export-xdpi="96"
       inkscape:export-ydpi="96" />
    <path
       inkscape:export-ydpi="96"
       inkscape:export-xdpi="96"
       id="path2111"
       d="m -528.52383,28.895365 0.16245,-0.133954 V 28.33138 c 0,-0.596254 -0.55101,-1.15813 -1.13581,-1.15813 h -0.48929 l -0.61152,0.633401 -0.61153,0.633401 v 0.429991 c 0,0.51969 0.65102,1.22792 1.12311,1.221928 0.18791,-0.0024 0.89107,-0.540852 1.56259,-1.196606 z"
       style="fill:#000000;stroke-width:0.264583"
       sodipodi:nodetypes="ccsscccscc" />
    <path
       inkscape:export-ydpi="96"
       inkscape:export-xdpi="96"
       id="path2063-1"
       d="m -550.20636,34.292004 0.16245,-0.133954 v -0.430031 c 0,-0.596254 -0.55101,-1.158129 -1.13581,-1.158129 h -0.48928 l -0.61153,0.6334 -0.61153,0.633401 v 0.429991 c 0,0.519691 0.65102,1.227921 1.12311,1.221929 0.18791,-0.0024 0.89108,-0.540852 1.56259,-1.196607 z"
       style="fill:#000000;stroke-width:0.264583"
       sodipodi:nodetypes="ccsscccscc" />
    <path
       sodipodi:nodetypes="ccsscccscc"
       style="fill:#000000;stroke-width:0.264583"
       d="m -542.66823,34.292004 0.16244,-0.133954 v -0.430031 c 0,-0.596254 -0.551,-1.158129 -1.1358,-1.158129 h -0.48929 l -0.61152,0.6334 -0.61154,0.633401 v 0.429991 c 0,0.519691 0.65103,1.227921 1.12312,1.221929 0.18791,-0.0024 0.89107,-0.540852 1.56259,-1.196607 z"
       id="path2065-2"
       inkscape:export-xdpi="96"
       inkscape:export-ydpi="96" />
    <path
       sodipodi:nodetypes="ccsscccscc"
       style="fill:#000000;stroke-width:0.264583"
       d="m -535.56085,34.938129 0.16244,-0.133954 v -0.430031 c 0,-0.596254 -0.551,-1.158129 -1.1358,-1.158129 h -0.48929 l -0.61152,0.6334 -0.61154,0.633401 v 0.429991 c 0,0.51969 0.65102,1.22792 1.12312,1.221928 0.1879,-0.0024 0.89107,-0.540852 1.56259,-1.196606 z"
       id="path2079-3"
       inkscape:export-xdpi="96"
       inkscape:export-ydpi="96" />
    <path
       sodipodi:nodetypes="ccsscccscc"
       style="fill:#000000;stroke-width:0.264583"
       d="m -556.88299,34.076629 0.16245,-0.133954 v -0.430031 c 0,-0.596254 -0.55101,-1.15813 -1.13581,-1.15813 h -0.48928 l -0.61153,0.633401 -0.61153,0.633401 v 0.429991 c 0,0.51969 0.65102,1.22792 1.12311,1.221928 0.18791,-0.0024 0.89108,-0.540852 1.56259,-1.196606 z"
       id="path2083-6"
       inkscape:export-xdpi="96"
       inkscape:export-ydpi="96" />
    <path
       inkscape:export-ydpi="96"
       inkscape:export-xdpi="96"
       id="path2137"
       d="m -537.28385,28.261501 0.16244,-0.133954 v -0.430031 c 0,-0.596254 -0.551,-1.158129 -1.1358,-1.158129 h -0.48929 l -0.61152,0.6334 -0.61154,0.633401 v 0.429991 c 0,0.519691 0.65102,1.227921 1.12312,1.221929 0.1879,-0.0024 0.89107,-0.540852 1.56259,-1.196607 z"
       style="fill:#000000;stroke-width:0.264583"
       sodipodi:nodetypes="ccsscccscc" />
    <path
       inkscape:export-ydpi="96"
       inkscape:export-xdpi="96"
       d="m -672.36718,0.51779784 c -2.8614,0 -5.06679,0.87364906 -7.16233,2.83864386 l -1.24854,1.1714621 -0.55485,-0.2407331 c -0.30501,-0.1324132 -1.09501,-0.243482 -1.75587,-0.2470683 l -1.20156,-0.00686 -0.92439,0.4376483 c -1.11081,0.525179 -1.79036,1.2147274 -2.29594,2.3318374 l -0.37641,0.8320073 -0.004,0.9291451 -0.004,0.9291451 -1.23112,0.5368982 -1.23111,0.535842 -0.82884,0.845205 c -0.45604,0.464823 -1.0873,1.385876 -1.40322,2.046759 l -0.57438,1.201554 0.004,1.755873 0.004,1.756401 0.51472,1.109167 c 0.86125,1.857169 2.35453,3.165559 4.34692,3.807383 l 1.0474,0.336815 8.44625,-0.02481 c -0.10259,-0.723225 -0.10552,-1.461199 -0.01,-2.183491 l -8.62364,-0.0027 -0.7391,-0.337343 h -5.4e-4 c -1.11022,-0.506284 -1.90411,-1.25995 -2.43846,-2.31335 l -0.47988,-0.946566 0.007,-1.201554 0.007,-1.201554 0.28983,-0.670462 c 0.67288,-1.558476 2.04842,-2.627195 3.85225,-2.99227 l 1.13029,-0.229119 0.19005,-0.300388 0.189,-0.300388 -0.24338,-1.0151969 -0.24337,-1.0157247 0.12934,-0.516309 c 0.30557,-1.2178583 1.46259,-2.1106555 2.7357,-2.1106376 h 0.63351 l 0.86632,0.5743806 0.86632,0.5738527 0.43184,-0.1087523 c 0.23755,-0.059617 0.66838,-0.4492743 0.95713,-0.8657943 0.76198,-1.0996042 2.08573,-2.2254616 3.33647,-2.838116 l 1.09228,-0.5347862 1.34251,-0.1937479 1.34251,-0.1937479 1.22689,0.2106414 c 2.40554,0.4120653 4.69003,1.9671115 5.88476,4.0058824 0.269,0.4590485 0.52997,1.0379079 0.74174,1.6033033 0.57945,-0.4381521 1.19883,-0.8240445 1.84614,-1.1514009 -0.17113,-0.4169436 -0.38622,-0.8813399 -0.59814,-1.2664882 l -0.66043,-1.2015534 -1.23534,-1.2047211 -1.23534,-1.205249 -1.18466,-0.5939138 c -1.62119,-0.81263198 -3.09647,-1.15509636 -4.97462,-1.15509636 z"
       style="fill:#000000;stroke-width:0.264583"
       id="path1110-3" />
    <path
       d="m -602.0994,0.51762019 c -3.98035,0 -7.04786,1.21568121 -9.96287,3.94908711 l -1.73725,1.629763 -0.77144,-0.335009 c -0.42429,-0.1841933 -1.52358,-0.3390463 -2.44288,-0.344035 l -1.67144,-0.00904 -1.28573,0.6082002 c -1.54519,0.7305503 -2.49043,1.6900118 -3.19372,3.2439678 l -0.52384,1.1571547 -0.005,1.292749 -0.005,1.292748 -1.71261,0.746338 -1.71213,0.745826 -1.15314,1.175721 c -0.63437,0.646592 -1.51273,1.927382 -1.95219,2.846703 l -0.79857,1.671447 0.005,2.442883 0.005,2.442882 0.71569,1.542873 c 1.19804,2.583414 3.27593,4.403284 6.04744,5.296094 l 1.45648,0.469085 18.38591,-0.05374 18.38591,-0.05423 1.47758,-0.59668 h -0.002 l 1.47758,-0.596655 1.40929,-1.287733 1.40877,-1.287734 0.81664,-1.658898 0.81665,-1.659386 0.12304,-1.916532 0.12304,-1.917045 -0.59012,-1.834682 -0.58964,-1.835171 -1.43638,-1.552413 -1.43642,-1.552928 -1.50621,-0.712654 c -0.828,-0.392018 -1.95121,-0.787868 -2.49611,-0.879925 l -0.99093,-0.167762 -0.12407,-0.428893 c -0.0681,-0.23606 -0.25586,-0.950153 -0.41735,-1.586562 -0.16148,-0.636461 -0.70761,-1.9093317 -1.21341,-2.8286017 l -0.91904,-1.6714508 -1.71814,-1.6759725 -1.71817,-1.6764856 -1.64833,-0.8261579 c -2.25516,-1.13041161 -4.30723,-1.60715991 -6.91984,-1.60715991 z m 0.26268,2.72512541 1.7066,0.2922975 c 3.34623,0.5732034 6.52455,2.7368007 8.18648,5.5728332 0.85398,1.4573467 1.67194,3.7880617 1.67194,4.7642127 0,0.37088 0.16845,0.914384 0.37417,1.207889 l 0.37316,0.533372 1.60517,0.167761 c 2.08262,0.217674 3.56539,0.955219 4.84609,2.410226 l 1.03259,1.173226 0.3842,1.29478 c 0.49114,1.653858 0.48415,2.377362 -0.0396,3.999308 -0.55281,1.711689 -1.82044,3.164845 -3.48402,3.993805 l -1.33545,0.665466 -18.27089,-0.0054 -18.2714,-0.0056 -1.02859,-0.469085 h 0.001 c -1.54471,-0.704224 -2.64974,-1.752375 -3.39315,-3.217899 l -0.66747,-1.316354 0.0101,-1.671446 0.0105,-1.671446 0.40279,-0.933181 c 0.93601,-2.167917 2.84964,-3.654193 5.35887,-4.16203 l 1.57252,-0.318424 0.26417,-0.417861 0.26318,-0.41835 -0.3385,-1.412295 -0.33902,-1.412809 0.18031,-0.718181 c 0.42506,-1.6941017 2.03448,-2.9355997 3.80544,-2.9355747 h 0.88093 l 1.20538,0.79854 1.20536,0.798052 0.60067,-0.150662 c 0.33043,-0.08293 0.92927,-0.624967 1.33093,-1.204367 1.05995,-1.5296046 2.90132,-3.0958519 4.64117,-3.9480846 l 1.51926,-0.7443073 1.86784,-0.2692054 z"
       style="fill:#000000;stroke-width:0.264583"
       id="path2154"
       inkscape:export-xdpi="96"
       inkscape:export-ydpi="96" />
    <path
       d="m -657.43137,6.4297216 c -2.8614,0 -5.06658,0.8739305 -7.16212,2.8389253 l -1.24888,1.1716061 -0.55457,-0.240832 c -0.30501,-0.132413 -1.09528,-0.2437336 -1.75614,-0.2473199 l -1.20157,-0.0065 -0.92429,0.4372239 c -1.11081,0.525179 -1.79032,1.214917 -2.29591,2.332028 l -0.37657,0.831856 -0.004,0.929334 -0.004,0.929332 -1.23117,0.536529 -1.23082,0.53616 -0.82897,0.845205 c -0.45604,0.464822 -1.08747,1.385558 -1.40339,2.046441 l -0.57408,1.201573 0.004,1.756142 0.004,1.756143 0.5145,1.109142 c 0.86125,1.857169 2.355,3.16544 4.34739,3.807265 l 1.04703,0.337216 13.21729,-0.03864 13.21729,-0.03898 1.06221,-0.428942 h -0.001 l 1.0622,-0.428924 1.01311,-0.925728 1.01274,-0.925728 0.58707,-1.19255 0.58707,-1.192902 0.0885,-1.37776 0.0884,-1.378128 -0.42422,-1.318919 -0.42392,-1.319267 -1.03258,-1.116 -1.03262,-1.116372 -1.08278,-0.512314 c -0.59531,-0.281815 -1.40276,-0.566384 -1.79448,-0.632563 l -0.71236,-0.1206 -0.0892,-0.308323 c -0.049,-0.1697 -0.18394,-0.683048 -0.30003,-1.14055 -0.11608,-0.457541 -0.50869,-1.372583 -0.8723,-2.033429 l -0.66071,-1.201573 -1.23514,-1.2048259 -1.23515,-1.2051944 -1.18496,-0.5939095 c -1.62119,-0.8126318 -3.09639,-1.1553574 -4.97454,-1.1553574 z m 0.18884,1.959042 1.22684,0.2101272 c 2.40554,0.4120653 4.69038,1.9674352 5.88511,4.0062062 0.61391,1.04766 1.20192,2.723167 1.20192,3.424904 0,0.266619 0.1211,0.657333 0.26899,0.868329 l 0.26826,0.383431 1.15392,0.1206 c 1.49716,0.156482 2.56309,0.68669 3.48376,1.732668 l 0.74231,0.843409 0.2762,0.930794 c 0.35307,1.188928 0.34805,1.709041 -0.0285,2.875028 -0.39741,1.230502 -1.30868,2.275148 -2.5046,2.871073 l -0.96003,0.478391 -13.1346,-0.0039 -13.13497,-0.004 -0.73943,-0.337216 h 7.9e-4 c -1.11047,-0.506295 -1.90486,-1.259792 -2.43928,-2.31333 l -0.47983,-0.946302 0.007,-1.201572 0.008,-1.201571 0.28956,-0.670846 c 0.67288,-1.558475 2.04855,-2.626932 3.85238,-2.992007 l 1.13046,-0.228908 0.18991,-0.300393 0.1892,-0.300744 -0.24335,-1.015273 -0.24372,-1.015642 0.12963,-0.516287 c 0.30557,-1.217858 1.46255,-2.110348 2.73566,-2.11033 h 0.63319 l 0.86652,0.574056 0.86652,0.573704 0.43181,-0.108308 c 0.23754,-0.05962 0.66803,-0.449277 0.95678,-0.865797 0.76198,-1.099604 2.08571,-2.2255502 3.33645,-2.8382045 l 1.09217,-0.5350357 1.34275,-0.1935267 z"
       style="fill:#000000;stroke-width:0.264583"
       id="path2156"
       inkscape:export-xdpi="96"
       inkscape:export-ydpi="96" />
    <path
       inkscape:export-ydpi="96"
       inkscape:export-xdpi="96"
       sodipodi:nodetypes="cccccscccccscc"
       style="fill:#000000;stroke-width:0.264583"
       d="M 25.051319,8.8153233 25.29132,8.3668053 V 4.5419753 1.775479 L 24.927024,1.4110677 c -0.200579,-0.2004213 -0.610563,-0.3643894 -0.91109,-0.3643894 -0.300526,0 -0.710501,0.1639681 -0.911089,0.3643894 L 22.740549,1.775479 v 2.8506254 3.9089589 l 0.364296,0.364411 c 0.200588,0.200422 0.666452,0.36439 1.035384,0.36439 h 0.67108 z"
       id="path1046" />
    <path
       inkscape:export-ydpi="96"
       inkscape:export-xdpi="96"
       style="fill:#000000;stroke-width:0.264583"
       d="m 14.081626,13.222052 0.279651,-0.56365 -0.312114,-0.59579 C 13.877331,11.734908 12.595688,10.345041 11.200881,8.9740033 L 8.6647211,6.4812087 h -0.498555 c -0.274094,0 -0.7160763,0.217743 -0.9822822,0.4838805 l -0.4837176,0.4838571 0.145855,0.617611 0.1460916,0.617587 2.6347142,2.6250647 2.6349429,2.625064 0.770326,-0.07429 0.770099,-0.07429 z"
       id="path1038" />
    <path
       inkscape:export-ydpi="96"
       inkscape:export-xdpi="96"
       style="fill:#000000;stroke-width:0.264583"
       d="m 38.682851,10.972043 2.608738,-2.6283567 v -0.467463 c 0,-0.60372 -0.793754,-1.3950146 -1.399216,-1.3950146 h -0.471886 l -2.789614,2.7772746 -2.789842,2.7772537 0.07301,0.753751 0.07301,0.753728 0.565111,0.280145 0.564875,0.280144 0.478616,-0.251552 c 0.262963,-0.138345 1.652205,-1.434297 3.087126,-2.87991 z"
       id="path1036" />
    <path
       inkscape:export-ydpi="96"
       inkscape:export-xdpi="96"
       style="fill:#000000;stroke-width:0.264583"
       d="m 47.544404,24.583797 c 0.344374,-0.643466 0.296162,-1.317332 -0.124339,-1.737838 L 47.055656,22.48157 h -3.995087 -3.995105 l -0.278265,0.278266 c -0.153042,0.153046 -0.278266,0.601749 -0.278266,0.997118 0,0.395369 0.125224,0.844073 0.278266,0.997119 l 0.278265,0.278265 h 4.119444 4.119443 z"
       id="path1028" />
    <path
       inkscape:export-ydpi="96"
       inkscape:export-xdpi="96"
       style="fill:#000000;stroke-width:0.264583"
       d="m 9.2829351,24.583797 c 0.322095,-0.601796 0.303541,-1.482112 -0.0383,-1.823961 L 8.9663691,22.48157 H 4.9711776 0.97621331 l -0.3645323,0.364389 c -0.2003512,0.20042 -0.3642956,0.610375 -0.3642956,0.910995 0,0.30062 0.1639444,0.710574 0.3642956,0.910995 l 0.3645323,0.364389 H 5.0094336 9.0428991 Z"
       id="path1026" />
    <path
       inkscape:export-ydpi="96"
       inkscape:export-xdpi="96"
       style="fill:#000000;stroke-width:0.264583"
       d="m 40.82781,40.568831 c 0.255084,-0.255076 0.463779,-0.693762 0.463779,-0.974879 V 39.082847 L 38.556243,36.34752 35.820888,33.612192 h -0.696593 c -0.383077,0 -0.821808,0.12522 -0.974858,0.278266 -0.153042,0.153046 -0.278266,0.591732 -0.278266,0.97488 v 0.696615 l 2.735355,2.735327 2.735346,2.735327 h 0.511088 c 0.281044,0 0.719775,-0.208699 0.97485,-0.463776 z"
       id="path1008" />
    <path
       inkscape:export-ydpi="96"
       inkscape:export-xdpi="96"
       style="fill:#000000;stroke-width:0.264583"
       d="m 11.414449,38.320261 2.746249,-2.712348 v -0.719595 c 0,-0.8882 -0.362903,-1.276126 -1.193527,-1.276126 h -0.636996 l -2.6838739,2.703861 c -1.4762,1.487144 -2.7429966,2.938994 -2.8151177,3.22635 l -0.1310171,0.522466 0.4837176,0.483858 c 0.2662059,0.266137 0.7091172,0.48388 0.9841312,0.48388 h 0.500413 z"
       id="path1006" />
    <path
       inkscape:export-ydpi="96"
       inkscape:export-xdpi="96"
       sodipodi:nodetypes="cccccscccccsc"
       style="fill:#000000;stroke-width:0.264583"
       d="M 24.927024,45.044414 25.29132,44.680003 V 42.887711 38.978753 L 24.927024,38.61434 c -0.200579,-0.20042 -0.610563,-0.364388 -0.91109,-0.364388 -0.300526,0 -0.710501,0.163968 -0.911089,0.364388 l -0.364296,0.364413 v 3.908958 1.792292 l 0.364296,0.364411 c 0.200588,0.200422 0.610563,0.36439 0.911089,0.36439 0.300527,0 0.710511,-0.163968 0.91109,-0.36439 z"
       id="path992" />
    <path
       inkscape:export-ydpi="96"
       inkscape:export-xdpi="96"
       id="path1058"
       style="fill:#000000;stroke:none;stroke-width:0.127"
       d="m 24.035137,11.782028 c -6.610967,0.03634 -11.950975,5.405911 -11.950835,12.016967 -7e-5,6.636797 5.380148,12.016991 12.016944,12.016968 6.636822,4.6e-5 12.017014,-5.380149 12.01697,-12.016968 4.4e-5,-6.636819 -5.380148,-12.017014 -12.01697,-12.016967 -0.022,-6.9e-5 -0.04408,-6.9e-5 -0.06608,0 z m 0.01358,2.448412 c 0.01753,-4.6e-5 0.03514,-4.6e-5 0.0525,0 5.284609,-2.3e-5 9.568602,4.283944 9.568558,9.568555 4.4e-5,5.284611 -4.283949,9.568602 -9.568558,9.568556 -5.284609,2.3e-5 -9.568601,-4.283968 -9.568557,-9.568556 -1.14e-4,-5.264112 4.25202,-9.539615 9.516033,-9.568555 z" />
  </g>
</svg>
